<svg width="48" height="48" viewBox="0 0 48 48" fill="none" xmlns="http://www.w3.org/2000/svg">
<rect width="48" height="48" fill="#E7E7E7"/>
<path d="M25.5773 14.0901L20.032 19.6604C17.6406 22.0626 17.6406 25.9568 20.032 28.359L20.4251 28.7538C20.5497 28.879 20.7523 28.879 20.8769 28.7538L22.835 26.7868C22.9596 26.6616 22.9596 26.4581 22.835 26.3329L22.4516 25.9478C21.353 24.8442 21.353 23.0545 22.4516 21.9509L27.9086 16.4692C29.0072 15.3657 30.7889 15.3657 31.8875 16.4692L37.3446 21.9509C38.4431 23.0545 38.4431 24.8442 37.3446 25.9478L31.8875 31.4295C30.7889 32.533 29.0072 32.533 27.9086 31.4295L27.6006 31.12C27.476 30.9949 27.2734 30.9949 27.1488 31.12L25.1906 33.087C25.066 33.2122 25.066 33.4157 25.1906 33.5409L25.5766 33.9286C27.9681 36.3308 31.8447 36.3308 34.2361 33.9286L39.7813 28.3583C42.1728 25.9561 42.1728 22.062 39.7813 19.6598L34.2361 14.0895C31.8447 11.6873 27.9681 11.6873 25.5766 14.0895L25.5773 14.0901Z" fill="url(#paint0_linear_218_6)"/>
<path d="M8.21867 19.6417L13.7639 14.0714C16.1553 11.6692 20.032 11.6692 22.4234 14.0714L22.8164 14.4662C22.941 14.5914 22.941 14.7949 22.8164 14.9201L20.8583 16.8871C20.7337 17.0122 20.5311 17.0122 20.4065 16.8871L20.023 16.5019C18.9244 15.3984 17.1427 15.3984 16.0441 16.5019L10.5871 21.9836C9.48851 23.0871 9.48851 24.8769 10.5871 25.9804L16.0441 31.4621C17.1427 32.5656 18.9244 32.5656 20.023 31.4621L25.4801 25.9804C26.5786 24.8769 26.5786 23.0871 25.4801 21.9836L25.172 21.6742C25.0474 21.549 25.0474 21.3455 25.172 21.2203L27.1302 19.2533C27.2548 19.1281 27.4574 19.1281 27.582 19.2533L27.968 19.6411C30.3594 22.0433 30.3594 25.9374 27.968 28.3396L22.4227 33.9099C20.0313 36.3121 16.1547 36.3121 13.7633 33.9099L8.21867 28.3403C5.82726 25.938 5.82726 22.0439 8.21867 19.6417Z" fill="url(#paint1_linear_218_6)"/>
<defs>
<linearGradient id="paint0_linear_218_6" x1="18.2388" y1="24.0097" x2="41.5752" y2="24.0097" gradientUnits="userSpaceOnUse">
<stop stop-color="#0076BD"/>
<stop offset="1" stop-color="#008ACE"/>
</linearGradient>
<linearGradient id="paint1_linear_218_6" x1="6.42543" y1="23.991" x2="29.7619" y2="23.991" gradientUnits="userSpaceOnUse">
<stop stop-color="#5A5B5D"/>
<stop offset="1" stop-color="#6C6D6F"/>
</linearGradient>
</defs>
</svg>
