<svg width="184" height="48" viewBox="0 0 184 48" fill="none" xmlns="http://www.w3.org/2000/svg">
<path d="M158.217 2.91207L149.283 11.8234C145.431 15.6665 145.431 21.8963 149.283 25.7394L149.917 26.371C150.117 26.5713 150.444 26.5713 150.644 26.371L153.799 23.2243C154 23.024 154 22.6984 153.799 22.4982L153.181 21.882C151.411 20.1165 151.411 17.2532 153.181 15.4878L161.973 6.71817C163.743 4.95274 166.613 4.95274 168.383 6.71817L177.175 15.4878C178.945 17.2532 178.945 20.1165 177.175 21.882L168.383 30.6516C166.613 32.417 163.743 32.417 161.973 30.6516L161.477 30.1566C161.276 29.9563 160.95 29.9563 160.749 30.1566L157.594 33.3033C157.393 33.5036 157.393 33.8291 157.594 34.0294L158.216 34.6497C162.069 38.4928 168.314 38.4928 172.167 34.6497L181.101 25.7384C184.953 21.8953 184.953 15.6655 181.101 11.8224L172.167 2.91105C168.314 -0.932019 162.069 -0.932019 158.216 2.91105L158.217 2.91207Z" fill="url(#paint0_linear_169_32)"/>
<path d="M130.252 11.7937L139.186 2.8823C143.039 -0.960767 149.284 -0.960767 153.137 2.8823L153.77 3.51391C153.971 3.71418 153.971 4.03974 153.77 4.24001L150.616 7.38676C150.415 7.58703 150.088 7.58703 149.888 7.38676L149.27 6.77056C147.5 5.00513 144.63 5.00513 142.86 6.77056L134.068 15.5402C132.298 17.3056 132.298 20.1689 134.068 21.9343L142.86 30.704C144.63 32.4694 147.5 32.4694 149.27 30.704L158.062 21.9343C159.831 20.1689 159.831 17.3056 158.062 15.5402L157.565 15.0452C157.364 14.8449 157.364 14.5193 157.565 14.3191L160.72 11.1723C160.921 10.972 161.247 10.972 161.448 11.1723L162.07 11.7926C165.922 15.6357 165.922 21.8655 162.07 25.7086L153.136 34.62C149.283 38.463 143.038 38.463 139.185 34.62L130.251 25.7086C126.399 21.8655 126.399 15.6357 130.251 11.7926L130.252 11.7937Z" fill="url(#paint1_linear_169_32)"/>
<path d="M13.4175 42.7888L10.8734 40.3199L7.28424 43.901L10.9434 47.4822L13.4175 45.0133L15.9616 47.4822L19.5517 43.901L15.8926 40.3199L13.4175 42.7888Z" fill="url(#paint2_linear_169_32)"/>
<path d="M41.2286 22.1736C41.2286 24.6415 40.2876 25.7199 38.3355 25.7199H35.4084C35.396 25.7199 35.3857 25.7219 35.3734 25.723C35.362 25.723 35.3507 25.7199 35.3384 25.7199H31.4702V17.0632L28.2991 14.2821H23.0019C18.1927 14.2821 15.6836 17.4453 15.6836 22.1736V27.8746C15.6836 31.733 14.0456 33.1934 10.4214 33.1934C6.7973 33.1934 4.95023 31.4896 4.91523 28.0481C4.91523 26.3792 5.26426 24.7103 5.89127 22.7292L1.5001 21.5472C0.488022 24.6066 0 27.284 0 29.6482C0 35.8708 3.62413 38.9303 10.4204 38.9303C18.0177 38.9303 21.1198 35.2803 21.1198 28.6058V23.5303C21.1198 21.2011 22.1659 20.019 24.0469 20.019H26.033V31.4568H38.2655C43.8767 31.4568 46.6298 28.9539 46.6298 24.1568V13.8312L41.1926 14.4916L41.2276 22.1747L41.2286 22.1736Z" fill="url(#paint3_linear_169_32)"/>
<path d="M43.7387 7.32927L40.9846 4.65186L37.3954 8.23304L41.0546 11.8132L43.7727 9.1368L46.5268 11.8132L50.1159 8.23304L46.4568 4.65186L43.7387 7.32927Z" fill="url(#paint4_linear_169_32)"/>
<path d="M60.5714 26.067C60.5714 25.8585 60.4324 25.7199 60.2224 25.7199C58.2363 25.7199 57.3292 24.6076 57.3292 22.1387L57.2942 6.07733L51.857 6.70278L51.892 24.0849C51.892 28.9868 54.6451 31.4547 60.2563 31.4547C60.4653 31.4547 60.6043 31.2811 60.6043 31.0727L60.5693 26.067H60.5714Z" fill="url(#paint5_linear_169_32)"/>
<path d="M92.0766 11.7094L88.4524 8.12827L84.8283 11.7094L88.4874 15.2896L92.0766 11.7094Z" fill="url(#paint6_linear_169_32)"/>
<path d="M101.522 35.6963L98.9779 33.2284L95.3877 36.8095L99.0468 40.3897L101.522 37.9218L104.066 40.3897L107.655 36.8095L103.996 33.2284L101.522 35.6963Z" fill="url(#paint7_linear_169_32)"/>
<path d="M111.21 6.70279L111.175 22.1377C111.175 24.6056 110.269 25.7189 108.283 25.7189C108.277 25.7189 108.272 25.7199 108.266 25.7199C108.26 25.7199 108.254 25.7189 108.248 25.7189C106.889 25.7189 105.565 25.3368 104.414 24.6066V17.3755L98.9769 18.0009L99.0119 22.1726C99.0119 24.6754 97.5478 25.7189 94.8297 25.7189C94.8173 25.7189 94.807 25.7209 94.7947 25.722C94.7834 25.722 94.772 25.7189 94.7597 25.7189C93.2956 25.7189 92.1456 25.3368 91.1006 24.7104V17.3755L85.6633 18.0009L85.6983 22.1726C85.6983 24.6405 84.7573 25.7189 82.8052 25.7189C82.7928 25.7189 82.7826 25.7209 82.7702 25.722C82.7589 25.722 82.7475 25.7189 82.7352 25.7189C81.4462 25.7189 80.4351 25.4406 79.5291 24.9538C79.6331 24.432 79.6681 23.8764 79.6681 23.3198C79.6681 18.8348 76.1479 15.9151 70.8507 15.9151H66.0415L75.2769 6.45939L70.4327 3.71317L60.6043 15.9151L63.3924 20.7821H71.1987C73.0458 20.7821 74.1958 21.7207 74.1958 23.2161C74.1958 24.7114 73.0108 25.7189 71.1637 25.7189H60.2553C60.0463 25.7189 59.9073 25.8575 59.9073 26.066V31.0717C59.9073 31.2801 60.0463 31.4537 60.2553 31.4537H71.1637C73.8468 31.4537 75.9729 30.6886 77.437 29.298C78.866 30.6886 80.6781 31.4537 82.7342 31.4537C85.8013 31.4537 88.0314 30.6886 89.4254 29.2292C90.8545 30.6547 92.7015 31.4537 94.7576 31.4537C98.4168 31.4537 101.17 30.5848 102.773 28.8461C104.411 30.515 106.397 31.4537 108.244 31.4537C113.855 31.4537 116.608 28.9858 116.608 24.0839L116.643 6.07631L111.206 6.70176L111.21 6.70279Z" fill="url(#paint8_linear_169_32)"/>
<defs>
<linearGradient id="paint0_linear_169_32" x1="146.394" y1="18.7814" x2="183.992" y2="18.7814" gradientUnits="userSpaceOnUse">
<stop stop-color="#0076BD"/>
<stop offset="1" stop-color="#008ACE"/>
</linearGradient>
<linearGradient id="paint1_linear_169_32" x1="127.363" y1="18.7516" x2="164.96" y2="18.7516" gradientUnits="userSpaceOnUse">
<stop stop-color="#5A5B5D"/>
<stop offset="1" stop-color="#6C6D6F"/>
</linearGradient>
<linearGradient id="paint2_linear_169_32" x1="61.2858" y1="43.901" x2="-5.34771" y2="43.901" gradientUnits="userSpaceOnUse">
<stop stop-color="#5A5B5D"/>
<stop offset="1" stop-color="#6C6D6F"/>
</linearGradient>
<linearGradient id="paint3_linear_169_32" x1="61.2859" y1="26.3803" x2="-5.34765" y2="26.3803" gradientUnits="userSpaceOnUse">
<stop stop-color="#5A5B5D"/>
<stop offset="1" stop-color="#6C6D6F"/>
</linearGradient>
<linearGradient id="paint4_linear_169_32" x1="61.2859" y1="8.23303" x2="-5.34768" y2="8.23303" gradientUnits="userSpaceOnUse">
<stop stop-color="#5A5B5D"/>
<stop offset="1" stop-color="#6C6D6F"/>
</linearGradient>
<linearGradient id="paint5_linear_169_32" x1="61.2859" y1="18.766" x2="-5.34764" y2="18.766" gradientUnits="userSpaceOnUse">
<stop stop-color="#5A5B5D"/>
<stop offset="1" stop-color="#6C6D6F"/>
</linearGradient>
<linearGradient id="paint6_linear_169_32" x1="119.194" y1="11.7094" x2="62.2794" y2="11.7094" gradientUnits="userSpaceOnUse">
<stop stop-color="#0076BD"/>
<stop offset="1" stop-color="#008ACE"/>
</linearGradient>
<linearGradient id="paint7_linear_169_32" x1="119.194" y1="36.8095" x2="62.2794" y2="36.8095" gradientUnits="userSpaceOnUse">
<stop stop-color="#0076BD"/>
<stop offset="1" stop-color="#008ACE"/>
</linearGradient>
<linearGradient id="paint8_linear_169_32" x1="119.194" y1="17.585" x2="62.2794" y2="17.585" gradientUnits="userSpaceOnUse">
<stop stop-color="#0076BD"/>
<stop offset="1" stop-color="#008ACE"/>
</linearGradient>
</defs>
</svg>
