<svg width="184" height="31" viewBox="0 0 184 31" fill="none" xmlns="http://www.w3.org/2000/svg">
<g clip-path="url(#clip0_60_242)">
<path d="M24.0515 2.92407L17.0876 9.91944C14.0843 12.9362 14.0843 17.8266 17.0876 20.8434L17.5811 21.3392C17.7377 21.4964 17.9921 21.4964 18.1486 21.3392L20.6077 18.869C20.7642 18.7118 20.7642 18.4563 20.6077 18.299L20.1261 17.8153C18.7465 16.4295 18.7465 14.1818 20.1261 12.7959L26.9793 5.91184C28.3589 4.52598 30.5965 4.52598 31.9761 5.91184L38.8293 12.7959C40.2089 14.1818 40.2089 16.4295 38.8293 17.8153L31.9761 24.6994C30.5965 26.0853 28.3589 26.0853 26.9793 24.6994L26.5924 24.3109C26.4359 24.1536 26.1815 24.1536 26.025 24.3109L23.5659 26.781C23.4094 26.9382 23.4094 27.1938 23.5659 27.351L24.0507 27.838C27.0539 30.8547 31.9223 30.8547 34.9256 27.838L41.8895 20.8426C44.8927 17.8258 44.8927 12.9354 41.8895 9.91863L34.9256 2.92327C31.9223 -0.0935217 27.0539 -0.0935217 24.0507 2.92327L24.0515 2.92407Z" fill="url(#paint0_linear_60_242)"/>
<path d="M2.25187 9.89593L9.21581 2.90056C12.219 -0.116227 17.0874 -0.116227 20.0907 2.90056L20.5843 3.39637C20.7408 3.55358 20.7408 3.80914 20.5843 3.96635L18.1252 6.43654C17.9687 6.59375 17.7143 6.59375 17.5578 6.43654L17.0762 5.95282C15.6966 4.56697 13.459 4.56697 12.0794 5.95282L5.22621 12.8369C3.84659 14.2228 3.84659 16.4705 5.22621 17.8563L12.0794 24.7404C13.459 26.1263 15.6966 26.1263 17.0762 24.7404L23.9294 17.8563C25.309 16.4705 25.309 14.2228 23.9294 12.8369L23.5425 12.4483C23.386 12.2911 23.386 12.0356 23.5425 11.8784L26.0016 9.40818C26.1581 9.25097 26.4125 9.25097 26.5691 9.40818L27.0538 9.89512C30.057 12.9119 30.057 17.8023 27.0538 20.8191L20.0899 27.8145C17.0866 30.8312 12.2182 30.8312 9.215 27.8145L2.25187 20.8199C-0.751357 17.8031 -0.751357 12.9127 2.25187 9.89593Z" fill="url(#paint1_linear_60_242)"/>
<path d="M48.5573 4.3325L53.9964 3.76413V21.1014H63.9932L64.5903 25.5226H48.5573V4.3325Z" fill="url(#paint2_linear_60_242)"/>
<path d="M67.2308 25.5218V4.3325L72.6698 3.76413V25.5226H67.2308V25.5218Z" fill="url(#paint3_linear_60_242)"/>
<path d="M82.0383 25.5218H77.1338V4.04791H82.4468L91.9091 17.0583V4.3325L96.8137 3.76413V25.5226H91.5006L82.0383 12.259V25.5226V25.5218Z" fill="url(#paint4_linear_60_242)"/>
<path d="M109.734 16.806H106.717V25.5218H101.278V4.04791H106.717V12.4162H109.766L114.796 4.04791H120.832L114.419 14.3745L121.021 25.2694L115.142 25.8378L109.735 16.806H109.734Z" fill="url(#paint5_linear_60_242)"/>
<path d="M136.803 21.5432H128.031L126.585 25.5226H120.99L129.258 4.1753L135.734 3.60693L143.751 25.2388L138.28 25.8072L136.803 21.544V21.5432ZM135.263 17.122L132.465 9.16405L129.604 17.122H135.263Z" fill="url(#paint6_linear_60_242)"/>
<path d="M150.352 8.46909H144.033V4.04791H162.141L161.575 8.46909H155.822V25.5218H150.352V8.46909Z" fill="url(#paint7_linear_60_242)"/>
<path d="M175.848 25.5218H170.409V19.0795L162.707 4.3317L168.146 3.76334L173.27 13.9633L178.268 4.04712H183.99L175.848 19.1101V25.521V25.5218Z" fill="url(#paint8_linear_60_242)"/>
</g>
<defs>
<linearGradient id="paint0_linear_60_242" x1="14.8355" y1="15.3814" x2="44.1423" y2="15.3814" gradientUnits="userSpaceOnUse">
<stop stop-color="#0076BD"/>
<stop offset="1" stop-color="#008ACE"/>
</linearGradient>
<linearGradient id="paint1_linear_60_242" x1="-0.00014803" y1="15.3579" x2="29.3066" y2="15.3579" gradientUnits="userSpaceOnUse">
<stop stop-color="#5A5B5D"/>
<stop offset="1" stop-color="#6C6D6F"/>
</linearGradient>
<linearGradient id="paint2_linear_60_242" x1="50.3896" y1="14.6429" x2="118.135" y2="14.6429" gradientUnits="userSpaceOnUse">
<stop stop-color="#5A5B5D"/>
<stop offset="1" stop-color="#6C6D6F"/>
</linearGradient>
<linearGradient id="paint3_linear_60_242" x1="50.3896" y1="14.6429" x2="118.135" y2="14.6429" gradientUnits="userSpaceOnUse">
<stop stop-color="#5A5B5D"/>
<stop offset="1" stop-color="#6C6D6F"/>
</linearGradient>
<linearGradient id="paint4_linear_60_242" x1="50.3896" y1="14.6429" x2="118.135" y2="14.6429" gradientUnits="userSpaceOnUse">
<stop stop-color="#5A5B5D"/>
<stop offset="1" stop-color="#6C6D6F"/>
</linearGradient>
<linearGradient id="paint5_linear_60_242" x1="50.3896" y1="14.9429" x2="118.135" y2="14.9429" gradientUnits="userSpaceOnUse">
<stop stop-color="#5A5B5D"/>
<stop offset="1" stop-color="#6C6D6F"/>
</linearGradient>
<linearGradient id="paint6_linear_60_242" x1="124.354" y1="14.7058" x2="183.907" y2="14.7058" gradientUnits="userSpaceOnUse">
<stop stop-color="#0076BD"/>
<stop offset="1" stop-color="#008ACE"/>
</linearGradient>
<linearGradient id="paint7_linear_60_242" x1="124.354" y1="14.7848" x2="183.907" y2="14.7848" gradientUnits="userSpaceOnUse">
<stop stop-color="#0076BD"/>
<stop offset="1" stop-color="#008ACE"/>
</linearGradient>
<linearGradient id="paint8_linear_60_242" x1="124.354" y1="14.643" x2="183.907" y2="14.643" gradientUnits="userSpaceOnUse">
<stop stop-color="#0076BD"/>
<stop offset="1" stop-color="#008ACE"/>
</linearGradient>
<clipPath id="clip0_60_242">
<rect width="183.99" height="29.4625" fill="white" transform="translate(0 0.638519)"/>
</clipPath>
</defs>
</svg>
