<svg width="185" height="30" viewBox="0 0 185 30" fill="none" xmlns="http://www.w3.org/2000/svg">
<g clip-path="url(#clip0_104_6)">
<path d="M24.0823 2.78561L17.1184 9.78098C14.1152 12.7978 14.1152 17.6882 17.1184 20.7049L17.612 21.2008C17.7685 21.358 18.0229 21.358 18.1794 21.2008L20.6385 18.7306C20.795 18.5734 20.795 18.3178 20.6385 18.1606L20.1569 17.6769C18.7773 16.291 18.7773 14.0433 20.1569 12.6575L27.0101 5.77338C28.3897 4.38753 30.6273 4.38753 32.0069 5.77338L38.8601 12.6575C40.2397 14.0433 40.2397 16.291 38.8601 17.6769L32.0069 24.561C30.6273 25.9468 28.3897 25.9468 27.0101 24.561L26.6233 24.1724C26.4668 24.0152 26.2124 24.0152 26.0558 24.1724L23.5968 26.6426C23.4403 26.7998 23.4403 27.0553 23.5968 27.2126L24.0815 27.6995C27.0848 30.7163 31.9532 30.7163 34.9564 27.6995L41.9203 20.7041C44.9236 17.6873 44.9236 12.797 41.9203 9.78017L34.9564 2.78481C31.9532 -0.23198 27.0848 -0.23198 24.0815 2.78481L24.0823 2.78561Z" fill="white"/>
<path d="M2.2827 9.75747L9.24663 2.7621C12.2499 -0.254685 17.1183 -0.254685 20.1215 2.7621L20.6151 3.25791C20.7716 3.41512 20.7716 3.67069 20.6151 3.82789L18.156 6.29808C17.9995 6.45529 17.7451 6.45529 17.5886 6.29808L17.107 5.81436C15.7274 4.42851 13.4898 4.42851 12.1102 5.81436L5.25703 12.6985C3.87741 14.0843 3.87741 16.332 5.25703 17.7179L12.1102 24.602C13.4898 25.9878 15.7274 25.9878 17.107 24.602L23.9602 17.7179C25.3398 16.332 25.3398 14.0843 23.9602 12.6985L23.5734 12.3099C23.4169 12.1527 23.4169 11.8971 23.5734 11.7399L26.0325 9.26972C26.189 9.11251 26.4434 9.11251 26.5999 9.26972L27.0846 9.75666C30.0879 12.7734 30.0879 17.6638 27.0846 20.6806L20.1207 27.676C17.1175 30.6928 12.2491 30.6928 9.24582 27.676L2.2827 20.6814C-0.720534 17.6646 -0.720534 12.7743 2.2827 9.75747Z" fill="white"/>
<path d="M48.5881 4.1941L54.0272 3.62573V20.963H64.024L64.6211 25.3842H48.5881V4.1941Z" fill="white"/>
<path d="M67.2617 25.3834V4.1941L72.7008 3.62573V25.3842H67.2617V25.3834Z" fill="white"/>
<path d="M82.0691 25.3834H77.1646V3.90951H82.4776L91.9399 16.9199V4.1941L96.8445 3.62573V25.3842H91.5314L82.0691 12.1206V25.3842V25.3834Z" fill="white"/>
<path d="M109.765 16.6675H106.747V25.3833H101.308V3.90942H106.747V12.2777H109.797L114.827 3.90942H120.863L114.45 14.236L121.052 25.1309L115.173 25.6993L109.766 16.6675H109.765Z" fill="white"/>
<path d="M136.834 21.4048H128.062L126.616 25.3842H121.021L129.289 4.03687L135.765 3.46851L143.781 25.1004L138.311 25.6687L136.834 21.4056V21.4048ZM135.293 16.9836L132.496 9.02562L129.635 16.9836H135.293Z" fill="white"/>
<path d="M150.383 8.3306H144.064V3.90942H162.172L161.606 8.3306H155.853V25.3833H150.383V8.3306Z" fill="white"/>
<path d="M175.879 25.3834H170.44V18.9411L162.737 4.19337L168.176 3.625L173.301 13.825L178.299 3.90878H184.021L175.879 18.9718V25.3826V25.3834Z" fill="white"/>
</g>
<defs>
<clipPath id="clip0_104_6">
<rect width="183.99" height="29.4625" fill="white" transform="translate(0.0307617 0.5)"/>
</clipPath>
</defs>
</svg>
