<svg width="224" height="224" viewBox="0 0 224 224" fill="none" xmlns="http://www.w3.org/2000/svg">
<path d="M159.367 215.547H184.703C192.883 215.547 200.729 212.297 206.513 206.513C212.297 200.728 215.547 192.883 215.547 184.703V159.367M215.547 64.6326V39.2966C215.547 31.1164 212.297 23.2711 206.513 17.4868C200.729 11.7025 192.883 8.45288 184.703 8.45288H159.367M64.6328 215.547H39.2969C31.1166 215.547 23.2714 212.297 17.4871 206.513C11.7027 200.728 8.45312 192.883 8.45312 184.703V159.367M8.45312 64.6326V39.2966C8.45312 31.1164 11.7027 23.2711 17.4871 17.4868C23.2714 11.7025 31.1166 8.45288 39.2969 8.45288H64.6328" stroke="#0181C6" stroke-width="16" stroke-linecap="round" stroke-linejoin="round"/>
</svg>
