<svg width="20" height="12" viewBox="0 0 20 12" fill="none" xmlns="http://www.w3.org/2000/svg">
<path d="M0.9 0.700684C1.15 0.450684 1.446 0.325684 1.788 0.325684C2.13 0.325684 2.42567 0.450684 2.675 0.700684L10 8.02568L17.35 0.675683C17.5833 0.44235 17.875 0.325684 18.225 0.325684C18.575 0.325684 18.875 0.450684 19.125 0.700684C19.375 0.950684 19.5 1.24668 19.5 1.58868C19.5 1.93068 19.375 2.22635 19.125 2.47568L10.7 10.8757C10.6 10.9757 10.4917 11.0467 10.375 11.0887C10.2583 11.1307 10.1333 11.1514 10 11.1507C9.86667 11.1507 9.74167 11.1297 9.625 11.0877C9.50833 11.0457 9.4 10.975 9.3 10.8757L0.875 2.45068C0.641666 2.21735 0.525 1.92968 0.525 1.58768C0.525 1.24568 0.65 0.950017 0.9 0.700684Z" fill="white"/>
</svg>
